<svg width="784" height="158" viewBox="0 0 784 158" fill="none" xmlns="http://www.w3.org/2000/svg">
    <path d="M251.6 119.296C245.36 119.296 239.744 118.192 234.752 115.984C229.856 113.68 225.968 110.608 223.088 106.768C220.208 102.832 218.672 98.464 218.48 93.664H235.472C235.76 97.024 237.344 99.856 240.224 102.16C243.2 104.368 246.896 105.472 251.312 105.472C255.92 105.472 259.472 104.608 261.968 102.88C264.56 101.056 265.856 98.752 265.856 95.968C265.856 92.992 264.416 90.784 261.536 89.344C258.752 87.904 254.288 86.32 248.144 84.592C242.192 82.96 237.344 81.376 233.6 79.84C229.856 78.304 226.592 75.952 223.808 72.784C221.12 69.616 219.776 65.44 219.776 60.256C219.776 56.032 221.024 52.192 223.52 48.736C226.016 45.184 229.568 42.4 234.176 40.384C238.88 38.368 244.256 37.36 250.304 37.36C259.328 37.36 266.576 39.664 272.048 44.272C277.616 48.784 280.592 54.976 280.976 62.848H264.56C264.272 59.296 262.832 56.464 260.24 54.352C257.648 52.24 254.144 51.184 249.728 51.184C245.408 51.184 242.096 52 239.792 53.632C237.488 55.264 236.336 57.424 236.336 60.112C236.336 62.224 237.104 64 238.64 65.44C240.176 66.88 242.048 68.032 244.256 68.896C246.464 69.664 249.728 70.672 254.048 71.92C259.808 73.456 264.512 75.04 268.16 76.672C271.904 78.208 275.12 80.512 277.808 83.584C280.496 86.656 281.888 90.736 281.984 95.824C281.984 100.336 280.736 104.368 278.24 107.92C275.744 111.472 272.192 114.256 267.584 116.272C263.072 118.288 257.744 119.296 251.6 119.296ZM334.138 119.296C326.65 119.296 319.882 117.616 313.834 114.256C307.786 110.8 303.034 106 299.578 99.856C296.122 93.616 294.394 86.416 294.394 78.256C294.394 70.192 296.17 63.04 299.722 56.8C303.274 50.56 308.122 45.76 314.266 42.4C320.41 39.04 327.274 37.36 334.858 37.36C342.442 37.36 349.306 39.04 355.45 42.4C361.594 45.76 366.442 50.56 369.994 56.8C373.546 63.04 375.322 70.192 375.322 78.256C375.322 86.32 373.498 93.472 369.85 99.712C366.202 105.952 361.21 110.8 354.874 114.256C348.634 117.616 341.722 119.296 334.138 119.296ZM334.138 105.04C338.362 105.04 342.298 104.032 345.946 102.016C349.69 100 352.714 96.976 355.018 92.944C357.322 88.912 358.474 84.016 358.474 78.256C358.474 72.496 357.37 67.648 355.162 63.712C352.954 59.68 350.026 56.656 346.378 54.64C342.73 52.624 338.794 51.616 334.57 51.616C330.346 51.616 326.41 52.624 322.762 54.64C319.21 56.656 316.378 59.68 314.266 63.712C312.154 67.648 311.098 72.496 311.098 78.256C311.098 86.8 313.258 93.424 317.578 98.128C321.994 102.736 327.514 105.04 334.138 105.04ZM386.078 78.256C386.078 70.096 387.71 62.944 390.974 56.8C394.334 50.56 398.942 45.76 404.798 42.4C410.654 39.04 417.374 37.36 424.958 37.36C434.558 37.36 442.478 39.664 448.718 44.272C455.054 48.784 459.326 55.264 461.534 63.712H443.822C442.382 59.776 440.078 56.704 436.91 54.496C433.742 52.288 429.758 51.184 424.958 51.184C418.238 51.184 412.862 53.584 408.83 58.384C404.894 63.088 402.926 69.712 402.926 78.256C402.926 86.8 404.894 93.472 408.83 98.272C412.862 103.072 418.238 105.472 424.958 105.472C434.462 105.472 440.75 101.296 443.822 92.944H461.534C459.23 101.008 454.91 107.44 448.574 112.24C442.238 116.944 434.366 119.296 424.958 119.296C417.374 119.296 410.654 117.616 404.798 114.256C398.942 110.8 394.334 106 390.974 99.856C387.71 93.616 386.078 86.416 386.078 78.256ZM486.246 28.144C483.27 28.144 480.774 27.136 478.758 25.12C476.742 23.104 475.734 20.608 475.734 17.632C475.734 14.656 476.742 12.16 478.758 10.144C480.774 8.128 483.27 7.11999 486.246 7.11999C489.126 7.11999 491.574 8.128 493.59 10.144C495.606 12.16 496.614 14.656 496.614 17.632C496.614 20.608 495.606 23.104 493.59 25.12C491.574 27.136 489.126 28.144 486.246 28.144ZM494.31 38.656V118H477.894V38.656H494.31ZM510.391 77.968C510.391 70 512.023 62.944 515.287 56.8C518.647 50.656 523.159 45.904 528.823 42.544C534.583 39.088 540.919 37.36 547.831 37.36C554.071 37.36 559.495 38.608 564.103 41.104C568.807 43.504 572.551 46.528 575.335 50.176V38.656H591.895V118H575.335V106.192C572.551 109.936 568.759 113.056 563.959 115.552C559.159 118.048 553.687 119.296 547.543 119.296C540.727 119.296 534.487 117.568 528.823 114.112C523.159 110.56 518.647 105.664 515.287 99.424C512.023 93.088 510.391 85.936 510.391 77.968ZM575.335 78.256C575.335 72.784 574.183 68.032 571.879 64C569.671 59.968 566.743 56.896 563.095 54.784C559.447 52.672 555.511 51.616 551.287 51.616C547.063 51.616 543.127 52.672 539.479 54.784C535.831 56.8 532.855 59.824 530.551 63.856C528.343 67.792 527.239 72.496 527.239 77.968C527.239 83.44 528.343 88.24 530.551 92.368C532.855 96.496 535.831 99.664 539.479 101.872C543.223 103.984 547.159 105.04 551.287 105.04C555.511 105.04 559.447 103.984 563.095 101.872C566.743 99.76 569.671 96.688 571.879 92.656C574.183 88.528 575.335 83.728 575.335 78.256ZM645.424 37.36C651.568 37.36 656.992 38.608 661.696 41.104C666.496 43.504 670.24 46.528 672.928 50.176V38.656H689.488V119.296C689.488 126.592 687.952 133.072 684.88 138.736C681.808 144.496 677.344 149.008 671.488 152.272C665.728 155.536 658.816 157.168 650.752 157.168C640 157.168 631.072 154.624 623.968 149.536C616.864 144.544 612.832 137.728 611.872 129.088H628.144C629.392 133.216 632.032 136.528 636.064 139.024C640.192 141.616 645.088 142.912 650.752 142.912C657.376 142.912 662.704 140.896 666.736 136.864C670.864 132.832 672.928 126.976 672.928 119.296V106.048C670.144 109.792 666.352 112.96 661.552 115.552C656.848 118.048 651.472 119.296 645.424 119.296C638.512 119.296 632.176 117.568 626.416 114.112C620.752 110.56 616.24 105.664 612.88 99.424C609.616 93.088 607.984 85.936 607.984 77.968C607.984 70 609.616 62.944 612.88 56.8C616.24 50.656 620.752 45.904 626.416 42.544C632.176 39.088 638.512 37.36 645.424 37.36ZM672.928 78.256C672.928 72.784 671.776 68.032 669.472 64C667.264 59.968 664.336 56.896 660.688 54.784C657.04 52.672 653.104 51.616 648.88 51.616C644.656 51.616 640.72 52.672 637.072 54.784C633.424 56.8 630.448 59.824 628.144 63.856C625.936 67.792 624.832 72.496 624.832 77.968C624.832 83.44 625.936 88.24 628.144 92.368C630.448 96.496 633.424 99.664 637.072 101.872C640.816 103.984 644.752 105.04 648.88 105.04C653.104 105.04 657.04 103.984 660.688 101.872C664.336 99.76 667.264 96.688 669.472 92.656C671.776 88.528 672.928 83.728 672.928 78.256ZM783.77 76.384C783.77 79.36 783.578 82.048 783.194 84.448H722.57C723.05 90.784 725.402 95.872 729.626 99.712C733.85 103.552 739.034 105.472 745.178 105.472C754.01 105.472 760.25 101.776 763.898 94.384H781.61C779.21 101.68 774.842 107.68 768.506 112.384C762.266 116.992 754.49 119.296 745.178 119.296C737.594 119.296 730.778 117.616 724.73 114.256C718.778 110.8 714.074 106 710.618 99.856C707.258 93.616 705.578 86.416 705.578 78.256C705.578 70.096 707.21 62.944 710.474 56.8C713.834 50.56 718.49 45.76 724.442 42.4C730.49 39.04 737.402 37.36 745.178 37.36C752.666 37.36 759.338 38.992 765.194 42.256C771.05 45.52 775.61 50.128 778.874 56.08C782.138 61.936 783.77 68.704 783.77 76.384ZM766.634 71.2C766.538 65.152 764.378 60.304 760.154 56.656C755.93 53.008 750.698 51.184 744.458 51.184C738.794 51.184 733.946 53.008 729.914 56.656C725.882 60.208 723.482 65.056 722.714 71.2H766.634Z" fill="#1F1F1F"/>
    <g clip-path="url(#clip0_0_1)">
        <g opacity="0.4">
            <g opacity="0.4">
                <path opacity="0.4" d="M156.826 40.8279H5.17407V26.3485C5.17407 17.5277 12.3246 10.3794 21.1481 10.3794H140.855C149.675 10.3794 156.829 17.5277 156.829 26.3485V40.8279H156.826Z" fill="white"/>
            </g>
        </g>
        <path d="M57.1321 6.93103V13.8276H96.3653C98.2693 13.8276 99.8147 12.2828 99.8147 10.3793C99.8147 8.47587 98.2693 6.93103 96.3653 6.93103H57.1321Z" fill="#961B1E"/>
        <path d="M96.3653 15.5518H55.4039V5.20691H96.3618C99.2145 5.20691 101.536 7.52761 101.536 10.3794C101.536 13.2311 99.2179 15.5518 96.3653 15.5518ZM58.8533 12.1035H96.3618C97.3139 12.1035 98.0865 11.3311 98.0865 10.3794C98.0865 9.42762 97.3139 8.65521 96.3618 8.65521H58.8533V12.1035Z" fill="#971C1F"/>
        <path d="M141.2 6.93103H109.035V13.8276H141.2C147.923 13.8276 153.377 19.2759 153.377 26.0001V115.014C153.377 121.735 147.927 127.187 141.2 127.187H20.7998C14.077 127.187 8.62349 121.739 8.62349 115.014V26.0001C8.62349 19.2794 14.0735 13.8276 20.7998 13.8276H44.5867C46.4218 13.8276 47.9084 12.3414 47.9084 10.5069C47.9084 8.53104 46.3079 6.93103 44.3314 6.93103H20.7998C10.2654 6.93103 1.72473 15.469 1.72473 26.0001V115.014C1.72473 125.546 10.2654 134.084 20.7998 134.084H141.204C151.738 134.084 160.279 125.546 160.279 115.014V26.0001C160.275 15.469 151.735 6.93103 141.2 6.93103Z" fill="#961B1E"/>
        <path d="M141.2 135.804H20.7997C9.33057 135.804 0 126.477 0 115.011V26.0001C0 14.5346 9.33057 5.20691 20.7997 5.20691H44.3314C47.253 5.20691 49.6331 7.58279 49.6331 10.5069C49.6331 13.2897 47.3703 15.5518 44.5867 15.5518H20.7997C15.0358 15.5518 10.3481 20.238 10.3481 26.0001V115.014C10.3481 120.777 15.0358 125.463 20.7997 125.463H141.204C146.968 125.463 151.655 120.777 151.655 115.014V26.0001C151.655 20.238 146.968 15.5518 141.204 15.5518H107.314V5.20691H141.204C152.673 5.20691 162.003 14.5346 162.003 26.0001V115.014C162 126.477 152.669 135.804 141.2 135.804ZM20.7997 8.65521C11.2312 8.65521 3.44938 16.4346 3.44938 26.0001V115.014C3.44938 124.577 11.2312 132.359 20.7997 132.359H141.204C150.769 132.359 158.554 124.58 158.554 115.014V26.0001C158.554 16.438 150.772 8.65521 141.204 8.65521H110.763V12.1035H141.204C148.868 12.1035 155.105 18.338 155.105 26.0001V115.014C155.105 122.677 148.868 128.911 141.204 128.911H20.7997C13.1352 128.911 6.89875 122.677 6.89875 115.014V26.0001C6.89875 18.338 13.1352 12.1035 20.7997 12.1035H44.5867C45.4662 12.1035 46.1837 11.3863 46.1837 10.5069C46.1837 9.48624 45.3524 8.65521 44.3314 8.65521H20.7997V8.65521Z" fill="#971C1F"/>
        <path d="M156.826 37.3795H5.17407V44.2761H156.826V37.3795Z" fill="#961B1E"/>
        <path d="M158.551 46.0003H3.44934V35.6554H158.551V46.0003ZM6.89872 42.552H155.101V39.1037H6.89872V42.552Z" fill="#971C1F"/>
        <path d="M5.17407 40.8278V127.725H155.415V40.8278H5.17407V40.8278ZM97.1483 78.428C93.4747 78.428 90.115 77.0418 87.5659 74.7624L67.0318 88.328C67.5733 89.835 67.8665 91.4591 67.8665 93.1522C67.8665 93.6626 67.8389 94.1626 67.7872 94.6591L78.9838 98.7109C81.5709 94.8626 85.9688 92.3212 90.9463 92.3212C98.8764 92.3212 105.334 98.7729 105.334 106.704C105.334 114.635 98.8764 121.087 90.9463 121.087C83.0127 121.087 76.5555 114.635 76.5555 106.704C76.5555 106.194 76.5831 105.69 76.6348 105.194L65.4381 101.145C62.8511 104.994 58.4566 107.535 53.4791 107.535C45.5456 107.535 39.0918 101.083 39.0918 93.1522C39.0918 85.2211 45.5456 78.7694 53.4791 78.7694C57.2355 78.7694 60.6608 80.2177 63.2236 82.5797L83.6681 69.0693C83.0817 67.5038 82.7609 65.8107 82.7609 64.0451C82.7609 56.1141 89.2182 49.6623 97.1483 49.6623C105.082 49.6623 111.539 56.1141 111.539 64.0451C111.539 71.9762 105.082 78.428 97.1483 78.428Z" fill="#971D21"/>
        <path d="M60.2365 17.6242C58.3324 17.6242 56.7871 16.0794 56.7871 14.1759V5C56.7871 3.18965 58.2531 1.72412 60.064 1.72412C62.0647 1.72412 63.6859 3.34482 63.6859 5.34483V14.1759C63.6859 16.0794 62.1405 17.6242 60.2365 17.6242Z" fill="#971C1F"/>
        <path d="M60.233 19.3484C57.3804 19.3484 55.059 17.0277 55.059 14.1759V5.00003C55.059 2.24484 57.3011 0 60.0606 0C63.0098 0 65.4071 2.39657 65.4071 5.34486V14.1759C65.4071 17.0277 63.0891 19.3484 60.233 19.3484ZM60.0606 3.4483C59.2051 3.4483 58.5083 4.14485 58.5083 5.00003V14.1759C58.5083 15.1277 59.281 15.9001 60.233 15.9001C61.1851 15.9001 61.9577 15.1277 61.9577 14.1759V5.34486C61.9577 4.30003 61.1092 3.4483 60.0606 3.4483Z" fill="#971C1F"/>
        <path d="M112.143 18.3311C110.239 18.3311 108.693 16.7863 108.693 14.8828V5.87933C108.693 3.97587 110.239 2.43103 112.143 2.43103C114.047 2.43103 115.592 3.97587 115.592 5.87933V14.8828C115.592 16.7863 114.047 18.3311 112.143 18.3311Z" fill="#971C1F"/>
        <path d="M112.143 20.0553C109.29 20.0553 106.969 17.7346 106.969 14.8829V5.87935C106.969 3.02761 109.29 0.706909 112.143 0.706909C114.995 0.706909 117.317 3.02761 117.317 5.87935V14.8829C117.317 17.7346 114.995 20.0553 112.143 20.0553ZM112.143 4.15521C111.191 4.15521 110.418 4.92762 110.418 5.87935V14.8829C110.418 15.8346 111.191 16.607 112.143 16.607C113.095 16.607 113.867 15.8346 113.867 14.8829V5.87935C113.867 4.92762 113.095 4.15521 112.143 4.15521Z" fill="#971C1F"/>
    </g>
    <defs>
        <clipPath id="clip0_0_1">
            <rect width="162" height="135.804" fill="white"/>
        </clipPath>
    </defs>
</svg>
